# Exported from Wings 3D 1.5.4
mtllib TITAN_Tank_Core.mtl
o Tank
#48 vertices, 28 faces
v 1.50000000 0.50000000 0.0000000e+0
v 1.44888874 0.50000000 0.38822857
v 1.29903811 0.50000000 0.75000000
v 1.06066017 0.50000000 1.06066017
v 0.75000000 0.50000000 1.29903811
v 0.38822857 0.50000000 1.44888874
v 9.1848510e-17 0.50000000 1.50000000
v -0.38822857 0.50000000 1.44888874
v -0.75000000 0.50000000 1.29903811
v -1.06066017 0.50000000 1.06066017
v -1.29903811 0.50000000 0.75000000
v -1.44888874 0.50000000 0.38822857
v -1.50000000 0.50000000 1.8369702e-16
v -1.44888874 0.50000000 -0.38822857
v -1.29903811 0.50000000 -0.75000000
v -1.06066017 0.50000000 -1.06066017
v -0.75000000 0.50000000 -1.29903811
v -0.38822857 0.50000000 -1.44888874
v -2.7554553e-16 0.50000000 -1.50000000
v 0.38822857 0.50000000 -1.44888874
v 0.75000000 0.50000000 -1.29903811
v 1.06066017 0.50000000 -1.06066017
v 1.29903811 0.50000000 -0.75000000
v 1.44888874 0.50000000 -0.38822857
v 1.50000000 -0.50000000 0.0000000e+0
v 1.44888874 -0.50000000 0.38822857
v 1.29903811 -0.50000000 0.75000000
v 1.06066017 -0.50000000 1.06066017
v 0.75000000 -0.50000000 1.29903811
v 0.38822857 -0.50000000 1.44888874
v 9.1848510e-17 -0.50000000 1.50000000
v -0.38822857 -0.50000000 1.44888874
v -0.75000000 -0.50000000 1.29903811
v -1.06066017 -0.50000000 1.06066017
v -1.29903811 -0.50000000 0.75000000
v -1.44888874 -0.50000000 0.38822857
v -1.50000000 -0.50000000 1.8369702e-16
v -1.44888874 -0.50000000 -0.38822857
v -1.29903811 -0.50000000 -0.75000000
v -1.06066017 -0.50000000 -1.06066017
v -0.75000000 -0.50000000 -1.29903811
v -0.38822857 -0.50000000 -1.44888874
v -2.7554553e-16 -0.50000000 -1.50000000
v 0.38822857 -0.50000000 -1.44888874
v 0.75000000 -0.50000000 -1.29903811
v 1.06066017 -0.50000000 -1.06066017
v 1.29903811 -0.50000000 -0.75000000
v 1.44888874 -0.50000000 -0.38822857
vt 7.8562003e-4 0.61710729
vt 7.8562003e-4 0.73477325
vt 2.5159080e-2 4.3850957e-3
vt 2.5159080e-2 4.3850957e-3
vt 3.2878275e-2 6.3018200e-2
vt 3.2878275e-2 6.3018200e-2
vt 3.7339747e-2 0.61710729
vt 3.7339747e-2 0.73477325
vt 5.5509809e-2 0.11765556
vt 5.5509809e-2 0.11765556
vt 7.9907929e-2 0.61710729
vt 7.9907929e-2 0.73477325
vt 9.1511379e-2 0.16457372
vt 0.12558922 0.61710729
vt 0.12558922 0.73477325
vt 0.13842954 0.20057529
vt 0.13842954 0.20057529
vt 0.17127050 0.61710729
vt 0.17127050 0.73477325
vt 0.19306690 0.22320682
vt 0.19306690 0.22320682
vt 0.21383868 0.61710729
vt 0.21383868 0.73477325
vt 0.25039281 0.61710729
vt 0.25039281 0.73477325
vt 0.25170000 0.23092602
vt 0.28694694 0.61710729
vt 0.28694694 0.73477325
vt 0.31033310 0.22320682
vt 0.31033310 0.22320682
vt 0.32951512 0.61710729
vt 0.32951512 0.73477325
vt 0.36497046 0.20057529
vt 0.37519641 0.61710729
vt 0.37519641 0.73477325
vt 0.41188862 0.16457372
vt 0.41188862 0.16457372
vt 0.42087769 0.61710729
vt 0.42087769 0.73477325
vt 0.44789019 0.11765556
vt 0.44789019 0.11765556
vt 0.46344587 0.61710729
vt 0.46344587 0.73477325
vt 0.47052173 6.3018200e-2
vt 0.47052173 6.3018200e-2
vt 0.47824092 4.3850957e-3
vt 0.47824092 4.3850957e-3
vt 0.50000000 0.61710729
vt 0.50000000 0.73477325
vt 0.52219241 4.8184291e-3
vt 0.52219241 4.8184291e-3
vt 0.52991161 6.3451534e-2
vt 0.52991161 6.3451534e-2
vt 0.53655413 0.61710729
vt 0.53655413 0.73477325
vt 0.55254314 0.11808889
vt 0.55254314 0.11808889
vt 0.57912231 0.61710729
vt 0.57912231 0.73477325
vt 0.58854471 0.16500705
vt 0.58854471 0.16500705
vt 0.62480359 0.61710729
vt 0.62480359 0.73477325
vt 0.63546287 0.20100862
vt 0.63546287 0.20100862
vt 0.67048488 0.61710729
vt 0.67048488 0.73477325
vt 0.69010023 0.22364015
vt 0.69010023 0.22364015
vt 0.71305306 0.61710729
vt 0.71305306 0.73477325
vt 0.74873333 0.23135935
vt 0.74873333 0.23135935
vt 0.74960719 0.61710729
vt 0.74960719 0.73477325
vt 0.78616132 0.61710729
vt 0.78616132 0.73477325
vt 0.80736644 0.22364015
vt 0.80736644 0.22364015
vt 0.82872950 0.61710729
vt 0.82872950 0.73477325
vt 0.86200379 0.20100862
vt 0.86200379 0.20100862
vt 0.87441078 0.61710729
vt 0.87441078 0.73477325
vt 0.90892195 0.16500705
vt 0.90892195 0.16500705
vt 0.92009207 0.61710729
vt 0.92009207 0.73477325
vt 0.94492352 0.11808889
vt 0.94492352 0.11808889
vt 0.96266025 0.61710729
vt 0.96266025 0.73477325
vt 0.96755506 6.3451534e-2
vt 0.96755506 6.3451534e-2
vt 0.97527425 4.8184291e-3
vt 0.97527425 4.8184291e-3
vt 0.99921438 0.61710729
vt 0.99921438 0.73477325
vn 0.0000000e+0 1.00000000 -1.5887305e-17
vn 1.00000000 0.0000000e+0 -3.4993847e-16
vn 1.00000000 0.0000000e+0 -3.4993847e-16
vn 0.0000000e+0 1.00000000 -1.5887305e-17
vn 0.96592583 0.0000000e+0 0.25881905
vn 0.96592583 0.0000000e+0 0.25881905
vn 0.0000000e+0 1.00000000 -1.5887305e-17
vn 0.86602540 0.0000000e+0 0.50000000
vn 0.86602540 0.0000000e+0 0.50000000
vn 0.0000000e+0 1.00000000 -1.5887305e-17
vn 0.70710678 0.0000000e+0 0.70710678
vn 0.70710678 0.0000000e+0 0.70710678
vn 0.0000000e+0 1.00000000 -1.5887305e-17
vn 0.50000000 0.0000000e+0 0.86602540
vn 0.50000000 0.0000000e+0 0.86602540
vn 0.0000000e+0 1.00000000 -1.5887305e-17
vn 0.25881905 0.0000000e+0 0.96592583
vn 0.25881905 0.0000000e+0 0.96592583
vn 0.0000000e+0 1.00000000 -1.5887305e-17
vn 2.3795816e-16 0.0000000e+0 1.00000000
vn 2.3795816e-16 0.0000000e+0 1.00000000
vn 0.0000000e+0 1.00000000 -1.5887305e-17
vn -0.25881905 0.0000000e+0 0.96592583
vn -0.25881905 0.0000000e+0 0.96592583
vn 0.0000000e+0 1.00000000 -1.5887305e-17
vn -0.50000000 0.0000000e+0 0.86602540
vn -0.50000000 0.0000000e+0 0.86602540
vn 0.0000000e+0 1.00000000 -1.5887305e-17
vn -0.70710678 0.0000000e+0 0.70710678
vn -0.70710678 0.0000000e+0 0.70710678
vn 0.0000000e+0 1.00000000 -1.5887305e-17
vn -0.86602540 0.0000000e+0 0.50000000
vn -0.86602540 0.0000000e+0 0.50000000
vn 0.0000000e+0 1.00000000 -1.5887305e-17
vn -0.96592583 0.0000000e+0 0.25881905
vn -0.96592583 0.0000000e+0 0.25881905
vn 0.0000000e+0 1.00000000 -1.5887305e-17
vn -1.00000000 0.0000000e+0 1.6797046e-16
vn -1.00000000 0.0000000e+0 1.6797046e-16
vn 0.0000000e+0 1.00000000 -1.5887305e-17
vn -0.96592583 0.0000000e+0 -0.25881905
vn -0.96592583 0.0000000e+0 -0.25881905
vn 0.0000000e+0 1.00000000 -1.5887305e-17
vn -0.86602540 0.0000000e+0 -0.50000000
vn -0.86602540 0.0000000e+0 -0.50000000
vn 0.0000000e+0 1.00000000 -1.5887305e-17
vn -0.70710678 0.0000000e+0 -0.70710678
vn -0.70710678 0.0000000e+0 -0.70710678
vn 0.0000000e+0 1.00000000 -1.5887305e-17
vn -0.50000000 0.0000000e+0 -0.86602540
vn -0.50000000 0.0000000e+0 -0.86602540
vn 0.0000000e+0 1.00000000 -1.5887305e-17
vn -0.25881905 0.0000000e+0 -0.96592583
vn -0.25881905 0.0000000e+0 -0.96592583
vn 0.0000000e+0 1.00000000 -1.5887305e-17
vn 0.0000000e+0 1.00000000 -1.5887305e-17
vn -3.4993847e-16 0.0000000e+0 -1.00000000
vn -3.4993847e-16 0.0000000e+0 -1.00000000
vn 0.0000000e+0 1.00000000 -1.5887305e-17
vn 0.0000000e+0 1.00000000 -1.5887305e-17
vn 0.25881905 0.0000000e+0 -0.96592583
vn 0.25881905 0.0000000e+0 -0.96592583
vn 0.0000000e+0 1.00000000 -1.5887305e-17
vn 0.50000000 0.0000000e+0 -0.86602540
vn 0.50000000 0.0000000e+0 -0.86602540
vn 0.0000000e+0 1.00000000 -1.5887305e-17
vn 0.70710678 0.0000000e+0 -0.70710678
vn 0.70710678 0.0000000e+0 -0.70710678
vn 0.0000000e+0 1.00000000 -1.5887305e-17
vn 0.86602540 0.0000000e+0 -0.50000000
vn 0.86602540 0.0000000e+0 -0.50000000
vn 0.0000000e+0 1.00000000 -1.5887305e-17
vn 0.96592583 0.0000000e+0 -0.25881905
vn 0.96592583 0.0000000e+0 -0.25881905
vn 0.0000000e+0 -1.00000000 0.0000000e+0
vn 1.00000000 0.0000000e+0 -3.4993847e-16
vn 1.00000000 0.0000000e+0 -3.4993847e-16
vn 0.0000000e+0 -1.00000000 0.0000000e+0
vn 0.96592583 0.0000000e+0 0.25881905
vn 0.96592583 0.0000000e+0 0.25881905
vn 0.0000000e+0 -1.00000000 0.0000000e+0
vn 0.86602540 0.0000000e+0 0.50000000
vn 0.86602540 0.0000000e+0 0.50000000
vn 0.0000000e+0 -1.00000000 0.0000000e+0
vn 0.70710678 0.0000000e+0 0.70710678
vn 0.70710678 0.0000000e+0 0.70710678
vn 0.0000000e+0 -1.00000000 0.0000000e+0
vn 0.50000000 0.0000000e+0 0.86602540
vn 0.50000000 0.0000000e+0 0.86602540
vn 0.0000000e+0 -1.00000000 0.0000000e+0
vn 0.25881905 0.0000000e+0 0.96592583
vn 0.25881905 0.0000000e+0 0.96592583
vn 0.0000000e+0 -1.00000000 -3.9718263e-18
vn 2.3795816e-16 0.0000000e+0 1.00000000
vn 2.3795816e-16 0.0000000e+0 1.00000000
vn 0.0000000e+0 -1.00000000 -3.9718263e-18
vn -0.25881905 0.0000000e+0 0.96592583
vn -0.25881905 0.0000000e+0 0.96592583
vn 0.0000000e+0 -1.00000000 -7.9436525e-18
vn -0.50000000 0.0000000e+0 0.86602540
vn -0.50000000 0.0000000e+0 0.86602540
vn 0.0000000e+0 -1.00000000 -7.9436525e-18
vn -0.70710678 0.0000000e+0 0.70710678
vn -0.70710678 0.0000000e+0 0.70710678
vn 0.0000000e+0 -1.00000000 -7.9436525e-18
vn -0.86602540 0.0000000e+0 0.50000000
vn -0.86602540 0.0000000e+0 0.50000000
vn 0.0000000e+0 -1.00000000 -7.9436525e-18
vn -0.96592583 0.0000000e+0 0.25881905
vn -0.96592583 0.0000000e+0 0.25881905
vn 0.0000000e+0 -1.00000000 -7.9436525e-18
vn -1.00000000 0.0000000e+0 1.6797046e-16
vn -1.00000000 0.0000000e+0 1.6797046e-16
vn 0.0000000e+0 -1.00000000 -7.9436525e-18
vn -0.96592583 0.0000000e+0 -0.25881905
vn -0.96592583 0.0000000e+0 -0.25881905
vn 0.0000000e+0 -1.00000000 -7.9436525e-18
vn -0.86602540 0.0000000e+0 -0.50000000
vn -0.86602540 0.0000000e+0 -0.50000000
vn 0.0000000e+0 -1.00000000 -7.9436525e-18
vn -0.70710678 0.0000000e+0 -0.70710678
vn -0.70710678 0.0000000e+0 -0.70710678
vn 0.0000000e+0 -1.00000000 -7.9436525e-18
vn -0.50000000 0.0000000e+0 -0.86602540
vn -0.50000000 0.0000000e+0 -0.86602540
vn 0.0000000e+0 -1.00000000 -7.9436525e-18
vn -0.25881905 0.0000000e+0 -0.96592583
vn -0.25881905 0.0000000e+0 -0.96592583
vn 0.0000000e+0 -1.00000000 -7.9436525e-18
vn 0.0000000e+0 -1.00000000 -3.9718263e-18
vn -3.4993847e-16 0.0000000e+0 -1.00000000
vn -3.4993847e-16 0.0000000e+0 -1.00000000
vn 0.0000000e+0 -1.00000000 -3.9718263e-18
vn 0.0000000e+0 -1.00000000 0.0000000e+0
vn 0.25881905 0.0000000e+0 -0.96592583
vn 0.25881905 0.0000000e+0 -0.96592583
vn 0.0000000e+0 -1.00000000 0.0000000e+0
vn 0.50000000 0.0000000e+0 -0.86602540
vn 0.50000000 0.0000000e+0 -0.86602540
vn 0.0000000e+0 -1.00000000 0.0000000e+0
vn 0.70710678 0.0000000e+0 -0.70710678
vn 0.70710678 0.0000000e+0 -0.70710678
vn 0.0000000e+0 -1.00000000 0.0000000e+0
vn 0.86602540 0.0000000e+0 -0.50000000
vn 0.86602540 0.0000000e+0 -0.50000000
vn 0.0000000e+0 -1.00000000 0.0000000e+0
vn 0.96592583 0.0000000e+0 -0.25881905
vn 0.96592583 0.0000000e+0 -0.25881905
g Tank_Titan_main_Tank
usemtl Titan_main_Tank
s 1
f 1/26/1 24/20/72 23/17/69 22/13/66 21/9/63 20/5/60 19/4/56 7/47/19 6/44/16 5/40/13 4/36/10 3/33/7 2/30/4
f 7/3/22 19/46/59 18/45/55 17/41/52 16/37/49 15/33/46 14/29/43 13/26/40 12/21/37 11/16/34 10/13/31 9/10/28 8/6/25
f 26/68/78 27/64/81 28/60/84 29/56/87 30/52/90 31/50/93 43/96/130 44/94/134 45/90/137 46/86/140 47/82/143 48/78/146 25/72/75
f 32/95/99 33/91/102 34/87/105 35/83/108 36/79/111 37/73/114 38/69/117 39/65/120 40/61/123 41/57/126 42/53/129 43/51/133 31/97/96
s 2
f 1/35/2 25/34/76 48/38/147 24/39/73
f 2/32/6 26/31/80 25/34/77 1/35/3
f 3/28/9 27/27/83 26/31/79 2/32/5
f 4/25/12 28/24/86 27/27/82 3/28/8
f 5/23/15 29/22/89 28/24/85 4/25/11
f 6/19/18 30/18/92 29/22/88 5/23/14
f 7/15/21 31/14/95 30/18/91 6/19/17
f 8/12/24 32/11/98 31/14/94 7/15/20
f 9/8/27 33/7/101 32/11/97 8/12/23
f 10/2/30 34/1/104 33/7/100 9/8/26
f 11/93/33 35/92/107 34/98/103 10/99/29
f 12/89/36 36/88/110 35/92/106 11/93/32
f 13/85/39 37/84/113 36/88/109 12/89/35
f 14/81/42 38/80/116 37/84/112 13/85/38
f 15/77/45 39/76/119 38/80/115 14/81/41
f 16/75/48 40/74/122 39/76/118 15/77/44
f 17/71/51 41/70/125 40/74/121 16/75/47
f 18/67/54 42/66/128 41/70/124 17/71/50
f 19/63/58 43/62/132 42/66/127 18/67/53
f 20/59/62 44/58/136 43/62/131 19/63/57
f 21/55/65 45/54/139 44/58/135 20/59/61
f 22/49/68 46/48/142 45/54/138 21/55/64
f 23/43/71 47/42/145 46/48/141 22/49/67
f 24/39/74 48/38/148 47/42/144 23/43/70
